<?xml version="1.0" encoding="utf-8"?>
<!-- Generator: Adobe Illustrator 27.5.0, SVG Export Plug-In . SVG Version: 6.00 Build 0)  -->
<svg version="1.1" id="Work_process" xmlns="http://www.w3.org/2000/svg" xmlns:xlink="http://www.w3.org/1999/xlink" x="0px"
	 y="0px" viewBox="0 0 400 400" style="enable-background:new 0 0 400 400;" xml:space="preserve">
<radialGradient id="Background_00000091727311796745403630000001087788130475556744_" cx="198.9886" cy="310.0774" r="198.6848" gradientTransform="matrix(1.0066 0 0 1.0067 -0.3019 -112.1549)" gradientUnits="userSpaceOnUse">
	<stop  offset="0" style="stop-color:#932AFF"/>
	<stop  offset="1" style="stop-color:#471E70"/>
</radialGradient>
<rect id="Background" style="fill-rule:evenodd;clip-rule:evenodd;fill:url(#Background_00000091727311796745403630000001087788130475556744_);" width="400" height="400"/>
<path id="Shadows" style="opacity:0.39;fill-rule:evenodd;clip-rule:evenodd;fill:#32004F;" d="M190.843,360.5
	c85.257,0,154.792-6.343,154.792-14.12c0-7.777-69.536-14.12-154.792-14.12c-85.257,0-154.792,6.343-154.792,14.12
	C36.051,354.157,105.586,360.5,190.843,360.5z"/>
<g id="Things2">
	<polygon style="fill-rule:evenodd;clip-rule:evenodd;fill:#A60000;" points="18.929,191.004 111.553,191.579 110.594,206.993 
		19.888,208.719 	"/>
	<path style="fill-rule:evenodd;clip-rule:evenodd;fill:#A38C8C;" d="M35.287,184.754c24.356,0,48.711,0,73.067,0l-1.16,2.219
		l1.64,4.589l-73.019,0l0.528-1.825l-0.663-1.234l0.614-2.023L35.287,184.754z"/>
	<path style="fill-rule:evenodd;clip-rule:evenodd;fill:#D1AFAF;" d="M107.871,190.393l-68.865-2.986
		c-0.085,1.629,6.792,3.918,6.792,5.635l49.683-3.186L107.871,190.393z"/>
	<path style="fill-rule:evenodd;clip-rule:evenodd;fill:#B09494;" d="M39.315,177.85c24.356,0,48.711,0,73.067,0l-1.161,2.219
		l1.64,4.589l-73.019,0l0.527-1.825l-0.663-1.234l0.614-2.024L39.315,177.85z"/>
	<polygon style="fill-rule:evenodd;clip-rule:evenodd;fill:#D9BDBD;" points="105.186,181.364 65.296,180.981 98.282,186.734 	"/>
	<polygon style="fill-rule:evenodd;clip-rule:evenodd;fill:#D9BDBD;" points="38.735,185.967 35.287,184.754 76.352,184.658 
		82.748,184.754 	"/>
	<path style="fill-rule:evenodd;clip-rule:evenodd;fill:#917171;" d="M40.039,182.216l8.861,0.201c0.479,0,0.959,0,1.438,0
		l15.726-0.096l9.493,2.337h10.826l-8.539-1.489l-12.548-2.189L40.039,182.216z"/>
	<polygon style="fill-rule:evenodd;clip-rule:evenodd;fill:#BD8888;" points="108.161,194.498 50.498,193.904 50.436,206.388 
		107.394,205.621 	"/>
	<path style="fill-rule:evenodd;clip-rule:evenodd;fill:#BD8888;" d="M33.562,206.292c3.963,0,7.196-2.886,7.196-6.425
		c0-3.539-3.233-6.425-7.196-6.425c-3.963,0-7.196,2.886-7.196,6.425C26.366,203.406,29.598,206.292,33.562,206.292z"/>
	<path style="fill-rule:evenodd;clip-rule:evenodd;fill:#3D2323;" d="M33.562,203.814c2.435,0,4.421-1.773,4.421-3.947
		c0-2.174-1.986-3.947-4.421-3.947c-2.435,0-4.421,1.773-4.421,3.947C29.14,202.041,31.126,203.814,33.562,203.814z"/>
	
		<rect x="53.252" y="137.272" transform="matrix(0.0038 -1 1 0.0038 -113.0202 230.1479)" style="fill-rule:evenodd;clip-rule:evenodd;fill:#005714;" width="11.507" height="69.057"/>
	<path style="fill-rule:evenodd;clip-rule:evenodd;fill:#D60072;" d="M80.434,113.613l-2.559,1.243
		c-0.341-1.246-3.253-7.309-1.26-9.143c0.632,0.316,0.379,0.288,0.767,0.288l3.452,1.246L80.434,113.613z"/>
	
		<rect x="85.765" y="109.578" transform="matrix(0.8995 -0.437 0.437 0.8995 -53.7743 54.4834)" style="fill-rule:evenodd;clip-rule:evenodd;fill:#C93600;" width="11.507" height="69.057"/>
	<polygon style="fill-rule:evenodd;clip-rule:evenodd;fill:#B3B3B3;" points="14.084,165.701 15.356,153.712 14.128,143.768 
		83.185,144.192 82.977,148.852 83.382,152.139 80.429,153.406 83.708,154 83.506,155.359 83.45,157.003 65.642,157.194 
		83.41,158.198 83.141,166.125 	"/>
	<polygon style="fill-rule:evenodd;clip-rule:evenodd;fill:#999999;" points="54.854,149.666 19.375,147.748 81.032,147.077 
		81.05,144.179 15.215,143.679 16.596,153.807 15.081,165.611 81.032,164.816 80.84,160.406 20.334,160.981 50.635,158.68 
		22.348,158.584 32.033,155.036 67.991,154.269 75.95,152.255 20.526,152.734 54.183,151.104 	"/>
	<polygon style="fill-rule:evenodd;clip-rule:evenodd;fill:#4D4D4D;" points="64.157,156.519 60.417,156.711 58.116,157.718 
		56.323,164.449 60.972,164.411 64.836,158.937 	"/>
	<polygon style="fill-rule:evenodd;clip-rule:evenodd;fill:#00078A;" points="14.128,143.768 83.185,144.192 84.197,142.186 
		12.855,142.282 	"/>
	<polygon style="fill-rule:evenodd;clip-rule:evenodd;fill:#00056B;" points="11.609,165.87 12.472,164.815 83.205,164.225 
		84.485,164.527 85.061,166.132 	"/>
	<polygon style="fill-rule:evenodd;clip-rule:evenodd;fill:#C44E00;" points="38.363,149.952 34.335,150.143 33.376,156.664 
		39.705,156.568 	"/>
	<polygon style="fill-rule:evenodd;clip-rule:evenodd;fill:#AFD600;" points="61.855,157.526 58.116,157.718 57.157,163.088 
		63.006,163.471 	"/>
	<polygon style="fill-rule:evenodd;clip-rule:evenodd;fill:#D60072;" points="64.157,156.519 60.417,156.711 60.705,161.026 
		65.691,161.985 	"/>
	<path style="fill-rule:evenodd;clip-rule:evenodd;fill:#000333;" d="M12.346,142.925c0.238-0.633,0.945-0.953,1.577-0.714
		c0.633,0.238,0.953,0.945,0.714,1.577c-1.481,3.94-2.229,7.622-2.241,11.045c-0.013,3.389,0.691,6.538,2.112,9.445
		c0.297,0.606,0.045,1.339-0.561,1.635c-0.606,0.296-1.339,0.045-1.635-0.561c-1.588-3.249-2.375-6.756-2.361-10.519
		C9.965,151.104,10.764,147.134,12.346,142.925z"/>
	<polygon style="fill-rule:evenodd;clip-rule:evenodd;fill:#024512;" points="24.485,169.771 24.499,165.936 85.061,166.132 	"/>
	<polygon style="fill-rule:evenodd;clip-rule:evenodd;fill:#703838;" points="55.126,195.181 53.4,195.469 53.4,204.387 
		54.934,204.195 	"/>
	<polygon style="fill-rule:evenodd;clip-rule:evenodd;fill:#703838;" points="105.178,195.363 103.739,195.363 103.452,204.665 
		104.698,204.856 	"/>
	<polygon style="fill-rule:evenodd;clip-rule:evenodd;fill:#D99292;" points="56.853,195.419 102.16,195.611 101.632,197.051 
		56.852,195.708 	"/>
	<polygon style="fill-rule:evenodd;clip-rule:evenodd;fill:#D99292;" points="56.612,202.947 100.481,203.762 100.482,204.051 
		56.661,204.242 	"/>
	<polygon style="fill-rule:evenodd;clip-rule:evenodd;fill:#00360D;" points="27.608,172.789 26.649,171.254 26.553,175.665 
		91.854,176.816 92.237,167.131 90.895,173.076 	"/>
	<polygon style="fill-rule:evenodd;clip-rule:evenodd;fill:#EDCD40;" points="32.122,113.847 57.245,113.847 57.245,127.271 
		51.491,142.23 38.259,142.23 32.122,128.23 	"/>
	<polygon style="fill-rule:evenodd;clip-rule:evenodd;fill:#DB9D21;" points="32.933,127.758 38.965,140.807 38.164,140.807 
		38.164,142.23 51.491,142.23 51.491,140.807 50.445,140.807 55.971,127.279 39.765,126.991 38.327,116.252 39.957,116.252 
		39.933,115.628 32.765,115.604 33.125,123.803 	"/>
	<path style="fill-rule:evenodd;clip-rule:evenodd;fill:#D9501F;" d="M81.744,116.784l-5.945,3.452l24.739,50.821l6.52-2.685
		L81.744,116.784L81.744,116.784z M74.009,117.836l-0.671-0.815l8.199-4.507l0.432,1.582L74.009,117.836L74.009,117.836z
		 M101.787,175.474l-0.671-0.815l8.199-4.507l0.432,1.582L101.787,175.474z"/>
	<rect x="32.122" y="113.847" style="fill-rule:evenodd;clip-rule:evenodd;fill:#B04E19;" width="25.123" height="1.499"/>
	<polygon style="fill-rule:evenodd;clip-rule:evenodd;fill:#DB9D21;" points="54.07,116.93 56.464,121.076 49.337,122.723 
		51.922,129.961 48.757,130.92 46.648,123.345 46.648,120.756 	"/>
	<path style="fill-rule:evenodd;clip-rule:evenodd;fill:#B04E19;" d="M53.734,121.141l-0.619-2.446l0.954-1.765l1.967-0.409
		l7.508,0.473c2.241,0.141,1.889-0.315,2.426,1.731c1.403,5.34,2.924,8.756-5.471,12.972c-0.488,0.245-6.189,2.205-6.814,2.205
		l-0.705-2.543l0.801-2.635c0.341,0,1.881-0.424,2.304-0.417c3.48,0.056,8.129,0.517,8.723-3.706
		c-0.302-1.196-0.631-2.174-1.102-3.227c-0.664-1.486-0.771-1.239-2.314-1.014l-4.929,0.717L53.734,121.141z"/>
	<polygon style="fill-rule:evenodd;clip-rule:evenodd;fill:#9E3700;" points="63.814,119.268 53.746,118.788 54.225,120.658 
		62.53,120.193 63.67,120.658 64.917,122.528 	"/>
	<path style="fill-rule:evenodd;clip-rule:evenodd;fill:#9E3700;" d="M53.746,131.445l0.575-1.822
		c3.308-0.639,5.598,0.465,9.925-1.918l-4.653,3.198l-5.271,2.267L53.746,131.445z"/>
	<polygon style="fill-rule:evenodd;clip-rule:evenodd;fill:#D98E0D;" points="40.298,140.687 35.335,128.916 50.486,129.204 
		47.705,140.807 41.376,140.615 47.322,141.262 47.346,141.933 40.154,141.957 39.866,140.807 	"/>
	<path style="fill-rule:evenodd;clip-rule:evenodd;fill:#CCB6B6;" d="M37.846,76.713c4.428-5.259,4.413-11.473,6.329-17.068
		c1.797,0.983,3.528,3.076,3.644,4.986C47.392,66.288,39.371,75.388,37.846,76.713L37.846,76.713z M52.095,71.335
		c-4.916,5.319-5.69,13.316,0.994,18.442C50.629,80.416,50.612,80.899,52.095,71.335L52.095,71.335z M52.356,98.854
		c-8.732-10.229-11.511-12.08-8.63-22.822C34.144,93.26,32.26,88.948,46.89,101.06l-6.233,7L52.356,98.854z"/>
	<polygon style="fill-rule:evenodd;clip-rule:evenodd;fill:#A82D00;" points="71.235,115.573 72.984,114.723 103.163,176.837 
		101.147,177.85 	"/>
</g>
<g id="Things1">
	<polygon style="fill-rule:evenodd;clip-rule:evenodd;fill:#DBB2B2;" points="278.398,179.91 379.158,176.936 376.041,203.022 
		280.74,204.447 	"/>
	<polygon style="fill-rule:evenodd;clip-rule:evenodd;fill:#A17C7C;" points="297.828,189.723 281.335,182.628 294.759,191.833 
		283.444,202.189 297.636,192.408 364.375,191.066 372.429,200.847 366.484,189.915 375.306,179.176 363.224,188.573 	"/>
	<polygon style="fill-rule:evenodd;clip-rule:evenodd;fill:#B89797;" points="375.402,177.833 279.514,180.997 298.116,188.477 
		361.402,187.614 	"/>
	<polygon style="fill-rule:evenodd;clip-rule:evenodd;fill:#B89797;" points="281.911,202.38 279.993,182.819 292.555,191.736 	"/>
	<polygon style="fill-rule:evenodd;clip-rule:evenodd;fill:#EDC5C5;" points="298.117,194.421 283.444,202.189 297.636,192.408 
		364.375,191.066 371.76,199.615 363.513,193.078 	"/>
	<path style="fill-rule:evenodd;clip-rule:evenodd;fill:#000A4D;" d="M378.465,177.568l-99.396,2.933l2.226,23.326l94.201-1.409
		L378.465,177.568L378.465,177.568z M278.382,179.298l100.713-2.972c0.044-0.005,0.09-0.005,0.135,0.001
		c0.336,0.04,0.577,0.345,0.537,0.681l-3.117,26.086l-0.002,0c-0.035,0.301-0.289,0.536-0.6,0.54l-95.279,1.425
		c-0.324,0.016-0.607-0.227-0.638-0.553l-2.341-24.538l-0.002-0.041C277.778,179.589,278.044,179.308,278.382,179.298z"/>
	<polygon style="fill-rule:evenodd;clip-rule:evenodd;fill:#006B2B;" points="281.634,161.636 377.714,161.019 376.72,177.02 
		282.628,179.999 	"/>
	<polygon style="fill-rule:evenodd;clip-rule:evenodd;fill:#C2A1A1;" points="374.197,164.091 314.381,164.231 314.317,177.182 
		373.401,175.639 	"/>
	<path style="fill-rule:evenodd;clip-rule:evenodd;fill:#CCC2C2;" d="M296.812,163.974c4.122-0.052,7.464,2.889,7.464,6.57
		c0,3.681-3.342,6.707-7.464,6.759c-4.122,0.052-7.464-2.89-7.464-6.57C289.348,167.052,292.69,164.026,296.812,163.974z"/>
	<path style="fill-rule:evenodd;clip-rule:evenodd;fill:#3D2323;" d="M296.812,166.544c2.533-0.032,4.586,1.775,4.586,4.037
		c0,2.262-2.053,4.121-4.586,4.153c-2.533,0.032-4.586-1.775-4.586-4.037C292.226,168.435,294.279,166.576,296.812,166.544z"/>
	<polygon style="fill-rule:evenodd;clip-rule:evenodd;fill:#703838;" points="319.181,165.495 317.391,165.816 317.391,175.066 
		318.983,174.847 	"/>
	<polygon style="fill-rule:evenodd;clip-rule:evenodd;fill:#703838;" points="371.102,165.028 369.61,165.047 369.311,174.699 
		370.604,174.882 	"/>
	<polygon style="fill-rule:evenodd;clip-rule:evenodd;fill:#CCC2C2;" points="320.973,165.719 367.972,165.324 367.423,166.825 
		320.972,166.019 	"/>
	<polygon style="fill-rule:evenodd;clip-rule:evenodd;fill:#CCC2C2;" points="320.723,173.531 366.23,173.801 366.231,174.101 
		320.774,174.874 	"/>
	<polygon style="fill-rule:evenodd;clip-rule:evenodd;fill:#A300A6;" points="386.467,143.49 290.398,145.158 291.773,161.132 
		385.909,161.872 	"/>
	<polygon style="fill-rule:evenodd;clip-rule:evenodd;fill:#BD8888;" points="293.988,148.146 353.79,146.863 354.162,159.808 
		295.059,159.672 	"/>
	<path style="fill-rule:evenodd;clip-rule:evenodd;fill:#BD8888;" d="M371.348,146.188c-4.123,0.046-7.394,3.066-7.306,6.746
		c0.087,3.68,3.5,6.626,7.623,6.579c4.123-0.046,7.394-3.066,7.306-6.746C378.883,149.087,375.47,146.142,371.348,146.188z"/>
	<path style="fill-rule:evenodd;clip-rule:evenodd;fill:#3D2323;" d="M371.409,148.757c-2.533,0.028-4.542,1.884-4.489,4.145
		c0.054,2.261,2.151,4.071,4.683,4.042c2.533-0.028,4.543-1.884,4.489-4.145C376.039,150.539,373.942,148.729,371.409,148.757z"/>
	<polygon style="fill-rule:evenodd;clip-rule:evenodd;fill:#703838;" points="349.021,148.241 350.819,148.519 351.039,157.767 
		349.442,157.586 	"/>
	<polygon style="fill-rule:evenodd;clip-rule:evenodd;fill:#703838;" points="297.105,149.009 298.597,148.992 299.124,158.635 
		297.836,158.848 	"/>
	<polygon style="fill-rule:evenodd;clip-rule:evenodd;fill:#D99292;" points="347.235,148.508 300.241,149.231 300.824,150.717 
		347.243,148.807 	"/>
	<polygon style="fill-rule:evenodd;clip-rule:evenodd;fill:#D99292;" points="347.671,156.311 302.184,157.664 302.19,157.963 
		347.652,157.655 	"/>
	<polygon style="fill-rule:evenodd;clip-rule:evenodd;fill:#002B11;" points="377.665,161.807 291.773,161.132 377.52,164.141 	"/>
	<polygon style="fill-rule:evenodd;clip-rule:evenodd;fill:#333333;" points="376.72,177.02 282.628,179.999 289.59,182.719 	"/>
	<path style="fill-rule:evenodd;clip-rule:evenodd;fill:#A38C8C;" d="M301.709,137.547c26.523-0.441,53.047-0.883,79.57-1.324
		l-1.264,2.438l1.786,4.968l-79.517,1.323l0.575-1.997l-0.722-1.331l0.669-2.215L301.709,137.547z"/>
	<path style="fill-rule:evenodd;clip-rule:evenodd;fill:#D1AFAF;" d="M380.752,142.372l-74.993-2.004
		c-0.093,1.776,7.397,4.143,7.397,6.014l54.104-4.37L380.752,142.372z"/>
	<path style="fill-rule:evenodd;clip-rule:evenodd;fill:#B09494;" d="M306.094,129.956c26.523-0.441,53.047-0.883,79.57-1.324
		l-1.264,2.438l1.786,4.968l-79.517,1.323l0.574-1.997l-0.722-1.331l0.669-2.215L306.094,129.956z"/>
	<polygon style="fill-rule:evenodd;clip-rule:evenodd;fill:#D9BDBD;" points="382.814,130.959 351.231,131.181 377.348,135.301 	"/>
	<polygon style="fill-rule:evenodd;clip-rule:evenodd;fill:#D9BDBD;" points="305.463,138.805 301.709,137.547 346.428,136.699 
		353.393,136.687 	"/>
	<path style="fill-rule:evenodd;clip-rule:evenodd;fill:#917171;" d="M331.233,132.492l7.016,0.043
		c0.38-0.006,0.759-0.013,1.139-0.019l12.451-0.283l7.516,1.725l8.572-0.143l-6.761-1.067l-9.935-1.567L331.233,132.492z"/>
	<path style="fill-rule:evenodd;clip-rule:evenodd;fill:#A38C8C;" d="M303.043,122.592c26.523-0.441,53.047-0.883,79.57-1.324
		l-1.264,2.438l1.786,4.968l-79.517,1.323l0.574-1.997l-0.722-1.331l0.669-2.215L303.043,122.592z"/>
	<path style="fill-rule:evenodd;clip-rule:evenodd;fill:#B09494;" d="M307.429,115.001c26.523-0.441,53.047-0.883,79.57-1.324
		l-1.264,2.438l1.786,4.968l-79.517,1.323l0.575-1.997l-0.722-1.331l0.669-2.215L307.429,115.001z"/>
	<polygon style="fill-rule:evenodd;clip-rule:evenodd;fill:#D9BDBD;" points="308.217,117.634 351.657,117.939 315.736,123.607 	"/>
	<polygon style="fill-rule:evenodd;clip-rule:evenodd;fill:#D9BDBD;" points="306.798,123.851 303.043,122.592 347.762,121.744 
		354.728,121.732 	"/>
	<path style="fill-rule:evenodd;clip-rule:evenodd;fill:#917171;" d="M379.162,119.743l-9.65,0.059
		c-0.522-0.009-1.044-0.017-1.566-0.026l-17.125-0.39l-10.338,2.373l-11.79-0.196l9.299-1.467l13.665-2.156L379.162,119.743z"/>
	<path style="fill-rule:evenodd;clip-rule:evenodd;fill:#7A6666;" d="M317.615,127.039c-6.585-0.639-9.877-0.959-9.877-0.959
		c45.451-1.598,68.177-2.397,68.177-2.397c-21.287,1.534-31.931,2.301-31.931,2.301c19.242,0.256,28.862,0.383,28.862,0.383
		c0.639,1.151,0.959,1.726,0.959,1.726c-34.201,0.32-51.301,0.48-51.301,0.48c15.406-0.703,23.109-1.055,23.109-1.055
		C326.948,127.199,317.615,127.039,317.615,127.039z"/>
	<path style="fill-rule:evenodd;clip-rule:evenodd;fill:#917171;" d="M312.875,135.857c-0.128-2.492-0.192-3.738-0.192-3.738
		c10.292-0.001,15.438-0.002,15.438-0.002c-2.621,0.735-3.931,1.103-3.931,1.103c2.206,0.128,3.308,0.192,3.308,0.192
		c-4.635,0.448-6.952,0.671-6.952,0.671c-1.822,1.055,0.24,1.822,0.24,1.822C317.493,136.033,312.875,135.857,312.875,135.857z"/>
	<path style="fill-rule:evenodd;clip-rule:evenodd;fill:#E8033C;" d="M311.097,132.119h8.918c-2.377,1.166-1.916,0.689-2.78,3.199
		l-8.583,0.109L311.097,132.119z"/>
	<path style="fill-rule:evenodd;clip-rule:evenodd;fill:#917171;" d="M362.226,141.354c-0.128-2.492-0.192-3.738-0.192-3.738
		c10.292-0.001,15.438-0.002,15.438-0.002c-2.621,0.735-3.931,1.103-3.931,1.103c2.205,0.128,3.308,0.192,3.308,0.192
		c-4.635,0.448-6.952,0.671-6.952,0.671c-1.822,1.055,0.24,1.822,0.24,1.822C366.844,141.53,362.226,141.354,362.226,141.354z"/>
	<path style="fill-rule:evenodd;clip-rule:evenodd;fill:#43B811;" d="M360.448,137.616h8.918c-2.377,1.166-1.916,0.689-2.78,3.199
		l-8.583,0.109L360.448,137.616z"/>
	<path style="fill-rule:evenodd;clip-rule:evenodd;fill:#917171;" d="M369.091,117.748c-0.102-1.984-0.153-2.976-0.153-2.976
		c8.194-0.001,12.29-0.001,12.29-0.001c-2.087,0.585-3.13,0.878-3.13,0.878c1.756,0.102,2.634,0.153,2.634,0.153
		c-3.69,0.356-5.534,0.534-5.534,0.534c-1.451,0.84,0.191,1.451,0.191,1.451C372.768,117.888,369.091,117.748,369.091,117.748z"/>
	<path style="fill-rule:evenodd;clip-rule:evenodd;fill:#DBA321;" d="M367.039,115.433h7.099c-1.892,0.929-1.525,0.549-2.213,2.547
		l-6.833,0.087L367.039,115.433z"/>
	<path style="fill-rule:evenodd;clip-rule:evenodd;fill:#DB216C;" d="M369.153,114.937h7.099c-1.892,0.929-1.525,0.549-2.213,2.547
		l-6.833,0.087L369.153,114.937z"/>
	<polygon style="fill-rule:evenodd;clip-rule:evenodd;fill:#FF6600;" points="365.233,66.265 359.002,109.642 361.78,110.109 
		368.011,66.732 367.547,61.672 	"/>
	<path style="fill-rule:evenodd;clip-rule:evenodd;fill:#E6B378;" d="M367.547,61.672c-1.543,3.062-2.314,4.594-2.314,4.594
		c0.039,0.924,0.425,1.11,1.158,0.558c0.668,0.76,1.208,0.73,1.62-0.091C367.701,63.359,367.547,61.672,367.547,61.672z"/>
	<path style="fill-rule:evenodd;clip-rule:evenodd;fill:#C74C00;" d="M368.011,66.732c-0.466,0.822-1.006,0.853-1.62,0.091
		c-4.001,28.702-6.001,43.053-6.001,43.053c0.996,0.106,1.458,0.191,1.386,0.257C365.933,81.199,368.011,66.732,368.011,66.732z"/>
	<path style="fill-rule:evenodd;clip-rule:evenodd;" d="M367.547,61.672c-0.603,1.198-0.905,1.797-0.905,1.797
		c0.359,0.402,0.722,0.466,1.088,0.193C367.608,62.335,367.547,61.672,367.547,61.672z"/>
	<path style="fill-rule:evenodd;clip-rule:evenodd;fill:#800009;" d="M368.178,91.76c-5.38-2.567,2.997-2.911,4.058-2.543
		c0.688,9.499-0.53,15.063-3.656,16.689c-2.119-0.53-3.179-0.795-3.179-0.795c1.27-1.926,2.854-3.374,3.425-5.239
		C370.445,94.588,368.96,89.867,368.178,91.76z"/>
	<path style="fill-rule:evenodd;clip-rule:evenodd;fill:#D10000;" d="M367.687,87.607c-0.454,2.645-0.619,3.83-0.377,5.345
		c0.909-1.384,3.084-4.257,4.962-3.217C372.367,87.685,370.377,86.611,367.687,87.607z"/>
	<path style="fill-rule:evenodd;clip-rule:evenodd;fill:#1F1726;" d="M352.77,66.265l6.231,43.377l-2.778,0.467l-6.231-43.377
		C349.489,61.371,350.88,60.606,352.77,66.265z"/>
	<path style="fill-rule:evenodd;clip-rule:evenodd;fill:#C74C00;" d="M350.127,67.673c1.956,6.575,2.612,10.685,1.969,12.328
		C351.029,78.957,350.372,74.848,350.127,67.673z"/>
	<path style="fill-rule:evenodd;clip-rule:evenodd;fill:#402D52;" d="M349.992,66.732c-0.054-0.661,0.544-4.868,1.62,0.091
		c4,28.702,6.001,43.053,6.001,43.053c-0.996,0.106-1.457,0.191-1.385,0.257C352.07,81.199,349.992,66.732,349.992,66.732z"/>
	<rect x="348.47" y="85.644" style="fill-rule:evenodd;clip-rule:evenodd;fill:#B80000;" width="19.708" height="28.444"/>
	<path style="fill-rule:evenodd;clip-rule:evenodd;fill:#FF0000;" d="M349.823,87.232c4.719,0.003,8.375,0.162,10.968,0.477
		c0,0,0,8.291,0,24.875c-2.736,0.645-6.296,0.645-10.68,0C350.112,112.584,350.015,104.133,349.823,87.232z"/>
	<path style="fill-rule:evenodd;clip-rule:evenodd;fill:#DB0000;" d="M366.271,87.607L366.271,87.607
		c-1.072,0-0.516,24.354,0,24.354l0,0C366.786,111.961,367.343,87.607,366.271,87.607z"/>
	<path style="fill-rule:evenodd;clip-rule:evenodd;fill:#FF4242;" d="M352.374,111.163c0.525,0,0.954-5.212,0.954-11.603
		c0-6.391-0.428-11.603-0.954-11.603c-0.525,0-0.953,5.212-0.953,11.603C351.421,105.951,351.849,111.163,352.374,111.163z"/>
	<path style="fill-rule:evenodd;clip-rule:evenodd;fill:#C74C00;" d="M349.828,67.446c-0.149-0.016-0.258-0.15-0.242-0.3
		c0.016-0.149,0.15-0.258,0.3-0.242c0.59,0.064,1.123,0.062,1.598-0.007c0.464-0.067,0.873-0.197,1.225-0.39
		c0.132-0.072,0.297-0.024,0.37,0.108c0.072,0.132,0.024,0.297-0.108,0.37c-0.41,0.225-0.88,0.376-1.41,0.452
		C351.041,67.512,350.464,67.515,349.828,67.446z"/>
	<path style="fill-rule:evenodd;clip-rule:evenodd;fill:#C74C00;" d="M353.64,84.166c-0.135-0.003-0.242-0.114-0.24-0.249
		c0.003-0.135,0.114-0.242,0.249-0.24c0.509,0.012,0.967-0.012,1.374-0.07c0.398-0.057,0.743-0.147,1.034-0.271
		c0.125-0.052,0.268,0.006,0.32,0.13c0.052,0.124-0.006,0.268-0.13,0.32c-0.332,0.141-0.717,0.243-1.155,0.306
		C354.664,84.153,354.18,84.178,353.64,84.166z"/>
	<path style="fill-rule:evenodd;clip-rule:evenodd;fill:#5D4573;" d="M350.782,67.989c1.055,4.307,1.694,8.299,1.919,11.974
		C351.758,76.73,351.119,72.739,350.782,67.989z"/>
</g>
<g id="Businessman">
	<g>
		<rect x="194.307" y="264.17" style="fill-rule:evenodd;clip-rule:evenodd;fill:#1C1336;" width="10.856" height="36.324"/>
		<path style="fill-rule:evenodd;clip-rule:evenodd;fill:#1C1336;" d="M197.38,305.215c-0.938,8.576-1.023,14.505-1.023,14.505
			c-5.013,0.35-22.334,3.082-44.078,9.83c0,0,0.521-2.755-2.527-2.667c0,0,0.842-1.268,2.526-3.805c0,0,10.241-1.599,42.033-17.948
			C194.312,305.131,195.334,305.159,197.38,305.215z"/>
		<path style="fill-rule:evenodd;clip-rule:evenodd;fill:#1C1336;" d="M205.684,305.599c0.515,8.496,0.562,14.418,0.562,14.418
			c13.139-0.375,29.861,7.684,38.831,12.12c0.447-1.676,3.463-6.254,0.384-8.006c0,0-21.334-7.847-38.092-18.878
			C207.37,305.253,206.808,305.368,205.684,305.599z"/>
		<rect x="193.027" y="292.303" style="fill-rule:evenodd;clip-rule:evenodd;fill:#271A4D;" width="13.808" height="27.36"/>
		<path style="fill-rule:evenodd;clip-rule:evenodd;fill:#1C1336;" d="M211.818,334.086c-14.312-10.215-16.737-14.423-16.737-14.423
			c0.15-7.331,1.845-11.763,1.845-11.763c4.392-0.341,6.589-0.512,6.589-0.512c13.112,18.496,19.668,27.744,19.668,27.744
			c0.441,1.934,0.375,3.553-0.2,4.858c-1.225,1.125-3.148,0.469-5.083,0.026C216.945,336.625,214.429,335.95,211.818,334.086z"/>
		<path style="fill-rule:evenodd;clip-rule:evenodd;fill:#290000;" d="M135.747,330.613c0.803,0,16.847-2.388,17.614-0.424
			l1.21,10.169l-8.716,1.937l-3.269-1.211l-3.268,4.358l-2.421,1.332l-14.164,3.39l-5.327-0.605l-1.574-1.816l1.211-0.363
			l-1.029-2.361l1.695-1.755l10.411-4.54l0.424-0.908l1.755-0.787v-0.787L135.747,330.613z"/>
		<ellipse style="fill-rule:evenodd;clip-rule:evenodd;fill:#1C1336;" cx="200.125" cy="264.434" rx="56.259" ry="7.646"/>
		<polygon style="fill-rule:evenodd;clip-rule:evenodd;fill:#541416;" points="174.79,235.199 181.802,261.222 222.776,261.389 
			235.106,234.73 235.999,223.6 239.72,211.388 175.049,212.341 		"/>
		<path style="fill-rule:evenodd;clip-rule:evenodd;fill:#632123;" d="M179.161,231.112l6.997,28.846l-2.827,1.27l-29.876-0.431
			l3.966,20.294l-4.522,41.412l1.549,1.007l-1.505,7.213l-17.693-0.475l1.817-8.188l-7.16-52.774
			c-0.157-1.993-3.12-20.061-2.624-23.628c0.492-3.536,35.131-13.406,47.472-17.037C175.776,228.322,178.89,229.935,179.161,231.112
			z"/>
		<path style="fill-rule:evenodd;clip-rule:evenodd;fill:#290000;" d="M254.789,329.344c-1.017-3.134-3.923-1.288-6.165-0.305
			c-2.804,1.23-5.841-0.27-6.302,1.367l-0.171,0.387l0.117,5.041l0.411,0.762l-0.586,0.586v1.993
			c0.84,2.085,1.613,1.762,2.931,2.931l1.348-0.176c0.948,0.93,1.583,1.473,1.583,2.755c1.229,3.641,3.776,7.336,7.327,8.948
			l0.235,0.02c1.911,0.985,6.215,0.56,8.175,0.03c0.213-0.057,0.279-0.03,0.499-0.03l2.462-1.524l0.118-1.583h-0.703v-1.348
			l-2.931-3.458c-0.055-0.191-1.085-3.302-2.763-6.326C257.947,335.045,255.773,334.973,254.789,329.344z"/>
		<polygon style="fill-rule:evenodd;clip-rule:evenodd;fill:#57191B;" points="156.972,285.211 143.924,256.45 150.992,258.952 
			152.699,257.388 186.159,259.958 180.607,235.838 135.317,249.539 128.882,247.023 138.768,322.033 146.061,321.915 
			150.894,322.21 		"/>
		<polygon style="fill-rule:evenodd;clip-rule:evenodd;fill:#632123;" points="139.308,263.98 136.458,268.198 146.259,291.957 		
			"/>
		<path style="fill-rule:evenodd;clip-rule:evenodd;fill:#632123;" d="M252.944,273.477l2.187,45.996l2.473,4.208l-0.201,6.021
			l-4.124-1.8l-12.439,4.928l-2.654-6.662l1.718-3.841l-12.99-42.805l1.011-17.951c-1.585-0.198-21.115-1.977-21.727-2
			c1.197-19.53,10.635-28.194,28.462-29.792l16.195,16.699l-0.101,12.6L252.944,273.477z"/>
		<path style="fill-rule:evenodd;clip-rule:evenodd;fill:#57181A;" d="M205.815,258.869l0.768-2.978l10.968-17.161l6.428-0.819
			l13.85,14.026c3.742,0.777,6.526,0.915,10.46-1.696l-0.989,13.005l5.23,56.543l-10.884,3.958l-14.732-44.224l7.477-17.737
			l-0.42-3.128c-0.141-0.075-2.994,2.139-4.003,2.774c-1.232,0.775-1.661-1.187-1.001-2.119c1.663-2.347,3.761-6.896-3.601-2.283
			c-0.284,0.178-1.821-1.577-2.177-1.494C221.103,256.022,208.04,258.596,205.815,258.869z"/>
		<polygon style="fill-rule:evenodd;clip-rule:evenodd;fill:#632123;" points="237.413,285.507 239.392,265.999 240.522,297.38 		
			"/>
		<polygon style="fill-rule:evenodd;clip-rule:evenodd;fill:#611C1E;" points="194.306,218.791 191.842,242.465 198.363,243.702 
			199.532,248.216 200.02,244.016 200.548,219.061 		"/>
		<path style="fill-rule:evenodd;clip-rule:evenodd;fill:#4A1012;" d="M202.31,229.504c-0.176,8.315-2.246,12.408-2.246,12.408
			s0.088-6.18-0.376-13.552c0,0-2.224,0.555-6.646,2.577c0.006-0.004-0.305,1.103-0.322-2.577c0.356-0.378-5.591-0.741-17.84-1.086
			c0,0,0.006-0.511,0.017-1.533c0,0,20.268-0.209,60.803-0.627c0.32-0.192,0.331,0.395,0.036,1.761c0,0-5.815-0.122-17.446-0.368
			C218.29,226.506,214.285,227.548,202.31,229.504z"/>
		<polygon style="fill-rule:evenodd;clip-rule:evenodd;fill:#732007;" points="173.952,221.337 236.974,220.057 236.878,225.089 
			173.857,226.368 		"/>
		<path style="fill-rule:evenodd;clip-rule:evenodd;" d="M155.949,260.833c28.411-2.335,52.403-2.089,71.976,0.739
			C209.433,263.385,185.441,263.138,155.949,260.833z"/>
		<path style="fill-rule:evenodd;clip-rule:evenodd;" d="M194.307,272.039c0,3.749,0,5.623,0,5.623c3.102-1.284,6.72-1.284,10.855,0
			c0,0,0-1.871,0-5.613C205.162,272.049,201.544,272.046,194.307,272.039z"/>
		<path style="fill-rule:evenodd;clip-rule:evenodd;fill:#4A1012;" d="M179.87,241.16c0,0-18.878,7.199-27.019,9.25
			c1.083,2.731,2.036,4.144,2.02,6.792c2.989,1.004,27.729-0.829,30.618-0.152c4.445,1.041,14.099,1.121,20.701-0.217
			c7.674-1.556,14.89,3.065,20.914,2.821c-0.132-0.48-0.181-4.834,4.226-5.9c0,0-15.705-7.708-21.927-5.577
			c0,0,2.984-5.013,7.16-14.56c0.02-0.018-9.982,5.479-12.529,14.703c-1.352,1.024-3.568,1.536-6.648,1.534
			c0,0-2.77-0.213-8.31-0.639c0,0-0.607-1.737-4.869-13.926c-0.241,1.625-1.076,3.549-2.51,5.279
			C180.697,240.273,180.856,240.9,179.87,241.16z"/>
		<path style="fill-rule:evenodd;clip-rule:evenodd;fill:#632123;" d="M143.443,249.593c6.913,2.828,9.957,6.717,9.642,9.493
			c0,0-4.599-3.463-14.308-8.214C141.888,250.019,143.443,249.593,143.443,249.593z"/>
		<path style="fill-rule:evenodd;clip-rule:evenodd;fill:#8F4000;" d="M199.55,225.237c0.336-0.036,0.638,0.208,0.674,0.544
			s-0.208,0.638-0.544,0.674l-6.485,0.713l-0.206-0.314c-0.738-1.126-1.122-2.266-1.153-3.419c-0.055-0.092-0.086-0.199-0.086-0.314
			c0-0.129,0.04-0.248,0.107-0.347c0.078-0.868,0.354-1.744,0.829-2.628l0.188-0.349l5.96,0.424
			c0.337,0.024,0.592,0.317,0.568,0.654c-0.024,0.338-0.317,0.592-0.654,0.568l-5.159-0.367c-0.223,0.479-0.374,0.956-0.452,1.431
			h4.02c0.339,0,0.614,0.275,0.614,0.614c0,0.339-0.275,0.614-0.614,0.614h-4.061c0.072,0.717,0.313,1.428,0.724,2.133
			L199.55,225.237z"/>
		<path style="fill-rule:evenodd;clip-rule:evenodd;fill:#7D272A;" d="M177.759,231.749c-7.04-0.413-15.606,1.164-25.698,4.731
			c6.904,0.256,10.356,0.383,10.356,0.383C171.669,235.015,176.783,233.31,177.759,231.749z"/>
		<path style="fill-rule:evenodd;clip-rule:evenodd;fill:#7D272A;" d="M235.021,233.315c-22.868-1.115-1.534,5.033,3.541,7.543
			C241.452,239.01,239.419,234.877,235.021,233.315z"/>
		<path style="fill-rule:evenodd;clip-rule:evenodd;fill:#110B26;" d="M223.561,343.198l-0.029,0.001l-5.803-0.076h-0.004h-0.002
			c-1.143-0.015-2.07,2.278-2.07,5.121s0.927,5.16,2.07,5.175l5.832-0.031l0.004,0h0.001c1.085,0.014,1.964-2.256,1.964-5.07
			c0-2.779-0.858-5.049-1.924-5.118V343.2l-0.011,0L223.561,343.198z"/>
		<path style="fill-rule:evenodd;clip-rule:evenodd;fill:#271A4D;" d="M216.161,341.759c5.125-0.127,7.688-0.19,7.688-0.19
			c0.823,0.697,1.305,2.321,1.446,4.871c0,0-2.41,0.089-7.231,0.266C217.881,344.589,217.247,342.94,216.161,341.759z"/>
		<path style="fill-rule:evenodd;clip-rule:evenodd;fill:#1A1136;" d="M219.53,337.919h2.587v5.687
			c-1.169,0.644-1.647,0.464-2.587,0V337.919z"/>
		<path style="fill-rule:evenodd;clip-rule:evenodd;fill:#271A4D;" d="M166.429,269.165c23.773,1.366,41.033,1.878,51.78,1.534
			C208.668,263.549,191.408,263.038,166.429,269.165z"/>
		<path style="fill-rule:evenodd;clip-rule:evenodd;fill:#8F2808;" d="M200.492,221.727c-0.053,2.5-0.079,3.75-0.079,3.75
			s3.223-0.322,16.062-0.454c3.473-1.882,3.452-2.395-0.234-3.958C216.241,221.065,213.122,221.456,200.492,221.727z"/>
		<path style="fill-rule:evenodd;clip-rule:evenodd;fill:#5C1414;" d="M185.536,220.395c1.79-0.128,2.685-0.192,2.685-0.192
			s-0.149,2.898-0.447,8.694c0,0-0.469-0.021-1.406-0.064C186.367,228.834,186.09,226.021,185.536,220.395z"/>
		<path style="fill-rule:evenodd;clip-rule:evenodd;fill:#5C1414;" d="M175.245,220.202c1.79-0.128,2.685-0.192,2.685-0.192
			s-0.149,2.898-0.447,8.694c0,0-0.469-0.021-1.406-0.064C176.076,228.641,175.799,225.828,175.245,220.202z"/>
		<path style="fill-rule:evenodd;clip-rule:evenodd;fill:#5C1414;" d="M210.412,220.183c1.79-0.128,2.685-0.192,2.685-0.192
			s-0.149,2.898-0.447,8.694c0,0-0.469-0.021-1.406-0.064C211.243,228.622,210.966,225.809,210.412,220.183z"/>
		<path style="fill-rule:evenodd;clip-rule:evenodd;fill:#5C1414;" d="M224.148,219.754c1.79-0.128,2.685-0.192,2.685-0.192
			s-0.149,2.898-0.447,8.694c0,0-0.469-0.021-1.406-0.064C224.979,228.193,224.702,225.38,224.148,219.754z"/>
		<path style="fill-rule:evenodd;clip-rule:evenodd;fill:#5C1414;" d="M235.55,219.569c1.808-0.128,2.633,0.214,2.633,0.214
			s-0.492,2.492-1.635,8.288c0,0-1.169,0.298-2.1,0.256C234.448,228.327,235.284,225.195,235.55,219.569z"/>
	</g>
	<g>
		<g>
			<path style="fill-rule:evenodd;clip-rule:evenodd;fill:#300909;" d="M214.824,99.697c-21.984,0.475-35.467-2.398-40.451-8.617
				c11.968-16.315,25.299-22.019,44.416-15.955c6.209,1.969,11.836,7.657,13.48,16.975
				C219.889,101.663,215.224,99.53,214.824,99.697z"/>
			<path style="fill-rule:evenodd;clip-rule:evenodd;fill:#380C0C;" d="M230.626,82.781c-11.843,8.325-17.764,12.488-17.764,12.488
				c3.04-10.011,5.971-16.226,8.794-18.643c-0.704,3.049-1.055,4.573-1.055,4.573c1.641-1.759,2.462-2.638,2.462-2.638
				C228.104,81.374,230.626,82.781,230.626,82.781L230.626,82.781z M195.449,94.038c-3.518,0.821-5.276,1.231-5.276,1.231
				s-4.632-3.459-13.895-10.377c0,0,3.049-2.638,9.146-7.915C189.456,83.634,192.797,89.321,195.449,94.038L195.449,94.038z
				 M199.916,95.964c5.628,1.993,8.442,2.99,8.442,2.99c0.958-6.798,4.065-15.358,9.322-25.679c0,0-2.111-0.703-6.332-2.111
				c0,0-0.997,2.697-2.99,8.091c0,0,0.293-2.697,0.879-8.091c-5.393-1.266-12.076-0.269-20.05,2.99
				C192.573,77.646,196.149,84.916,199.916,95.964z"/>
			<path style="fill-rule:evenodd;clip-rule:evenodd;fill:#4D1515;" d="M186.43,80.905c0.495,4.362-0.602,5.47-3.292,3.324
				c5.37,4.88,5.626,4.315,5.626,4.315c1.275-0.195,2.095-0.163,2.461,0.096C186.408,81.48,186.43,80.905,186.43,80.905z"/>
			<path style="fill-rule:evenodd;clip-rule:evenodd;fill:#4D1515;" d="M198.33,79.43c-1.705-0.514-2.557-0.771-2.557-0.771
				c2.429,5.836,3.644,8.754,3.644,8.754c3.983-0.937,6.647-0.907,7.991,0.091c1.676-2.348,2.188-2.303,1.534,0.136
				c2.642-5.11,3.964-7.666,3.964-7.666c-2.685,1.803-3.793,2.09-3.324,0.862c-1.193,0.847-1.79,1.27-1.79,1.27
				c-0.938-2.661-1.407-3.992-1.407-3.992C203.327,81.976,200.642,82.414,198.33,79.43z"/>
			<path style="fill-rule:evenodd;clip-rule:evenodd;fill:#4D1515;" d="M219.848,80.823c-1.602,3.92,3.592,1.587,4.249,3.34
				c-4.527,4.88-4.88,4.315-4.88,4.315c-1.309-0.195-2.124-0.163-2.445,0.096C218.285,84.672,219.097,81.334,219.848,80.823z"/>
		</g>
		<polygon style="fill-rule:evenodd;clip-rule:evenodd;fill:#3C6F8C;" points="173.373,159.538 171.265,218.982 173.927,222.661 
			237.934,221.048 241.54,219.522 234.836,157.913 		"/>
		<polygon style="fill-rule:evenodd;clip-rule:evenodd;fill:#3C6F8C;" points="179.834,129.97 158.797,140.618 142.965,173.919 
			135.942,178.277 129.41,193.143 132.721,207.853 198.954,206.862 220.543,205.86 270.565,204.6 276.511,193.607 273.175,179.393 
			261.429,158.245 254.325,142.869 238.841,131.637 217.462,142.709 192.95,142.955 		"/>
		<path style="fill-rule:evenodd;clip-rule:evenodd;fill:#2F7899;" d="M244.792,199.231c-0.531-7.191-0.796-10.786-0.796-10.786
			c0.238-0.224-0.385-1.339-0.108-1.464c3.813-1.717,5.222-3.341,5.222-3.341c-3.388-3.196-5.082-4.795-5.082-4.795
			c-47.45-0.509-71.869-0.509-73.259,0c-9.333,8.694-14,13.041-14,13.041c-0.944,5.416-1.415,8.125-1.415,8.125
			C214.342,199.497,244.155,199.237,244.792,199.231z"/>
		<path style="fill-rule:evenodd;clip-rule:evenodd;fill:#3C6F8C;" d="M169.417,185.191c-13.753,4.422-20.629,6.633-20.629,6.633
			c-6.6-4.123,0.695-9.082,5.122-10.659C167.135,176.454,171.963,178.734,169.417,185.191z"/>
		<path style="fill-rule:evenodd;clip-rule:evenodd;fill:#ED7557;" d="M225.032,194.52c1.639-2.664,2.518-4.518,2.5-5.602
			c2.515-0.522,4.289-0.745,5.322-0.671c4.192,0.284,7.101,0.748,8.726,1.39C232.409,194.86,226.939,196.501,225.032,194.52z"/>
		<path style="fill-rule:evenodd;clip-rule:evenodd;fill:#F08165;" d="M220.003,199.53c19.798,2.288,31.112,1.804,33.942-1.452
			c-0.59-2.709-2.484-6.249-9.949-9.633c-12.146,4.091-14.312,2.697-16.325,3.369C225.244,194.785,220.003,199.53,220.003,199.53z"
			/>
		<path style="fill-rule:evenodd;clip-rule:evenodd;fill:#D96346;" d="M219.716,201.575c4.633-4.573,7.574-7.546,8.822-8.918
			c1.227,1.045,2.33,1.54,3.308,1.486c1.2,1.73,2.286,2.561,3.26,2.493c1.296,1.335,2.543,2.134,3.74,2.397
			C230.188,202.294,223.812,203.141,219.716,201.575z"/>
		<path style="fill-rule:evenodd;clip-rule:evenodd;fill:#F08165;" d="M155.355,200.011c6.102-0.486,11.431-2.064,13.426-3.462
			c0,0,0.978,1.189,1.916,2.553c0.161,1.068-0.171,1.404,5.009,0.732c-1.234-5.448-3.374-11.452-8.845-17.992
			c0,0-10.846-2.408-17.004,4.475C147.018,188.344,149.298,199.659,155.355,200.011z"/>
		<path style="fill-rule:evenodd;clip-rule:evenodd;fill:#D96346;" d="M155.484,196.097c0.724,2.003,1.087,3.004,1.087,3.004
			c2.803,0.862,6.874,0.012,12.21-2.552c0.087-0.598,0.108-2.198,0.064-4.799c-1.23,0.762-2.028,2.024-4.304,1.929
			c-1.38-0.057-1.745,1.961-4.456,1.567C158.828,195.063,157.817,196.426,155.484,196.097z"/>
		<path style="fill-rule:evenodd;clip-rule:evenodd;fill:#D96346;" d="M175.706,199.834c-0.786-2.887-1.179-4.331-1.179-4.331
			s-0.977,0.102-2.932,0.306c0.471,2.912,0.706,4.368,0.706,4.368C174.571,199.948,175.706,199.834,175.706,199.834z"/>
		<path style="fill-rule:evenodd;clip-rule:evenodd;fill:#FF9100;" d="M159.458,196.747c0.266,0.575,0.4,0.863,0.4,0.863
			c-0.592,0.87-1.786,1.094-3.583,0.672c0,0-0.107-0.296-0.321-0.889C157.594,197.732,158.762,197.517,159.458,196.747z"/>
	</g>
</g>
<path id="Light" style="opacity:0.57;fill-rule:evenodd;clip-rule:evenodd;fill:#CCCCCC;" d="M286.274,192.599
	c-48.706-9.774-107.82-5.5-174.722-1.02c4.07-28.781,5.364-69.791,1.265-109.187c61.026,1.311,119.837,0.671,176.435-1.918
	C283.775,126.987,282.782,164.362,286.274,192.599z"/>
<g id="Computer">
	<g>
		<path style="fill-rule:evenodd;clip-rule:evenodd;fill:#E6BDBD;" d="M114.073,206.941c17.891-0.268,26.837-0.401,26.837-0.401
			C134.739,186.12,125.793,186.253,114.073,206.941z"/>
		<path style="fill-rule:evenodd;clip-rule:evenodd;fill:#D1AAAA;" d="M138.935,206.569l-23.399,0.35l5.653-8.058
			c1.092-0.698,3.842-1.072,6.718-1.164l-0.198,7.109l2.011-7.13l-1.812,0.021c2.561-0.082,5.222,0.061,6.898,0.397L138.935,206.569
			z"/>
		<polygon style="fill-rule:evenodd;clip-rule:evenodd;fill:#333333;" points="129.276,198.426 127.892,198.23 128.245,193.871 
			129.51,193.587 129.852,193.751 130.139,194.159 		"/>
	</g>
	<g>
		<g>
			<path style="fill-rule:evenodd;clip-rule:evenodd;fill:#DB7500;" d="M136.284,101.97c-4.222,11.777-5.642,17.337-4.261,16.678
				c0,0-3.758-0.637-11.273-1.911c-0.334,0.008,0.082-1.686,1.246-5.082c0,0,1.534-4.155,4.603-12.466
				C126.6,99.189,129.828,100.116,136.284,101.97z"/>
			<path style="fill-rule:evenodd;clip-rule:evenodd;fill:#003CFF;" d="M266.593,81.361c-6.041,7.16-8.854,11.146-8.437,11.959
				c6.235-5.519,9.239-8.005,9.013-7.457c8.481,4.137,12.274,6.107,11.379,5.91c0.261,2.871,0.392,4.307,0.392,4.307
				c2.168-4.184,3.251-6.276,3.251-6.276C271.792,84.175,266.593,81.361,266.593,81.361z"/>
			<path style="fill-rule:evenodd;clip-rule:evenodd;fill:#001CD1;" d="M266.593,82.705c-5.54,6.733-8.31,10.1-8.31,10.1
				c10.398,8.097,15.598,12.146,15.598,12.146c5.54-9.717,8.31-14.575,8.31-14.575C271.792,85.262,266.593,82.705,266.593,82.705z"
				/>
			<path style="fill-rule:evenodd;clip-rule:evenodd;fill:#FF8800;" d="M126.6,99.189c-4.294,10.734-6.244,16.583-5.849,17.548
				c3.748-10.028,6.753-14.727,9.014-14.097c1.905,0.271,2.755,0.257,2.552-0.042c-0.019-1.184-0.029-1.776-0.029-1.776
				C128.496,99.733,126.6,99.189,126.6,99.189z"/>
		</g>
		<g>
			<g>
				<polygon style="fill-rule:evenodd;clip-rule:evenodd;fill:#C2A1A1;" points="133.179,96.239 271.182,94.85 269.074,180.227 
					133.145,180.418 				"/>
				<polygon style="fill-rule:evenodd;clip-rule:evenodd;fill:#997777;" points="138.116,102.272 150.622,109.822 249.214,108.878 
					263.525,100.504 255.222,114.293 253.687,163.21 262.091,174.215 250.888,166.541 152.093,168 138.273,175.983 148.976,163.079 
					148.226,113.234 				"/>
				<polygon style="fill-rule:evenodd;clip-rule:evenodd;fill:#694D4D;" points="155.874,153.884 249.028,153.884 250.791,156.711 
					250.248,172.525 248.499,174.461 157.552,174.009 153.91,171.995 153.995,156.794 				"/>
				<rect x="190.957" y="129.489" style="fill-rule:evenodd;clip-rule:evenodd;fill:#332727;" width="22.979" height="8.838"/>
				<path style="fill-rule:evenodd;clip-rule:evenodd;fill:#FFDBDB;" d="M269.63,157.727l0.975-62.308l-136.863,1.378l-0.586,57.261
					l-0.982-60.232c46.382-0.466,94.089-1.993,140.471-2.461L269.63,157.727z"/>
				<g>
					<path style="fill-rule:evenodd;clip-rule:evenodd;fill:#694D4D;" d="M186.413,123.295c0.511,0,0.928-0.377,0.928-0.84
						c0-0.462-0.417-0.84-0.928-0.84c-0.511,0-0.928,0.377-0.928,0.84C185.484,122.918,185.901,123.295,186.413,123.295z"/>
					<path style="fill-rule:evenodd;clip-rule:evenodd;fill:#694D4D;" d="M215.977,124.267c0.925,0,1.679-0.635,1.679-1.414
						s-0.754-1.414-1.679-1.414s-1.679,0.635-1.679,1.414S215.052,124.267,215.977,124.267z"/>
					<path style="fill-rule:evenodd;clip-rule:evenodd;fill:#694D4D;" d="M185.75,145.832c0.633,0,1.149-0.278,1.149-0.619
						c0-0.341-0.516-0.619-1.149-0.619s-1.149,0.278-1.149,0.619C184.601,145.554,185.117,145.832,185.75,145.832z"/>
					<ellipse style="fill-rule:evenodd;clip-rule:evenodd;fill:#694D4D;" cx="216.605" cy="143.607" rx="1.404" ry="1.133"/>
				</g>
				<path style="fill-rule:evenodd;clip-rule:evenodd;fill:#785F5F;" d="M132.691,125.583c11.521-8.116,17.281-12.174,17.281-12.174
					c-3.653,13.536-5.479,20.305-5.479,20.305c-7.823-2.654-11.734-3.981-11.734-3.981
					C132.714,126.966,132.691,125.583,132.691,125.583z"/>
				<path style="fill-rule:evenodd;clip-rule:evenodd;fill:#90CF13;" d="M141.708,131.152c-11.991-5.239-17.986-7.859-17.986-7.859
					c2.449-1.791,5.285-6.787,8.507-14.989c11.829,3.403,17.743,5.104,17.743,5.104
					C148.044,121.027,145.289,126.942,141.708,131.152z"/>
				<path style="fill-rule:evenodd;clip-rule:evenodd;fill:#354F00;" d="M138.295,124.641c0.168,0.354,0.335,0.874,0.494,1.369
					c0.205,0.636,0.396,1.231,0.522,1.318l-0.151,0.219c-0.2-0.139-0.405-0.775-0.624-1.455c-0.156-0.487-0.321-0.997-0.482-1.337
					L138.295,124.641L138.295,124.641z M131.855,122.036c0.005-0.074,0.069-0.129,0.143-0.124c0.073,0.005,0.129,0.069,0.124,0.142
					c-0.092,1.262,0.873,1.629,1.704,1.689c0.315,0.023,0.613,0.003,0.83-0.03l0.038-0.004c0.019-0.044,0.05-0.081,0.095-0.106
					c0.034-0.018,0.072-0.028,0.116-0.028c0.189,0,0.273,0.064,0.273,0.16c0,0.06-0.084,0.128-0.228,0.18
					c0.009,0.031,0.02,0.058,0.028,0.074c0.035,0.065,0.011,0.146-0.053,0.181c-0.065,0.035-0.146,0.011-0.181-0.053
					c-0.016-0.03-0.037-0.081-0.053-0.139c-0.233,0.035-0.55,0.056-0.886,0.032C132.853,123.941,131.747,123.513,131.855,122.036
					L131.855,122.036z M134.91,123.741l0.001-0.004C134.911,123.713,134.91,123.721,134.91,123.741L134.91,123.741z
					 M140.193,126.291c-0.236,0.284-0.36,0.631-0.471,0.942c-0.091,0.255-0.173,0.485-0.292,0.604
					c-0.264,0.263-0.816,0.03-2.399-1.554c-0.052-0.052-0.136-0.052-0.188,0c-0.052,0.052-0.052,0.136-0.001,0.188
					c1.734,1.736,2.395,1.936,2.776,1.555c0.162-0.162,0.254-0.418,0.355-0.702c0.104-0.291,0.22-0.616,0.424-0.862
					c0.047-0.057,0.039-0.141-0.017-0.188C140.324,126.227,140.24,126.235,140.193,126.291L140.193,126.291z M131.846,118.477
					c-1.069,0.466-1.401,0.851-1.261,1.172c0.285,0.655,2.942,0.816,4.838,0.93c0.904,0.055,1.63,0.099,1.792,0.168
					c0.205,0.088,0.205,0.21,0.205,0.332c0.001,0.406,0.003,0.806,2.532,0.746c0.163-0.004,0.24,0.079,0.332,0.178
					c0.183,0.197,0.41,0.441,1.16,0.441c0.074,0,0.133-0.06,0.133-0.134c0-0.074-0.06-0.133-0.133-0.133
					c-0.634,0-0.818-0.197-0.965-0.356c-0.136-0.146-0.25-0.269-0.533-0.262c-2.258,0.053-2.259-0.212-2.26-0.48
					c-0.001-0.209-0.002-0.421-0.367-0.577c-0.204-0.088-0.951-0.133-1.881-0.189c-1.828-0.11-4.389-0.265-4.609-0.77
					c-0.074-0.171,0.23-0.432,1.123-0.821c0.067-0.029,0.098-0.108,0.069-0.175C131.992,118.479,131.914,118.448,131.846,118.477
					L131.846,118.477z M134.071,112.636c0.023-0.07,0.098-0.108,0.168-0.086c0.07,0.023,0.108,0.098,0.085,0.168
					c-0.367,1.118-0.718,2.343-0.597,2.95c0.101,0.508,0.648,0.476,2.071-0.721c0.256-0.215,0.397-0.258,0.474-0.167
					c0.081,0.098-0.01,0.273-0.14,0.521c-0.204,0.391-0.53,1.014-0.448,1.405c0.061,0.291,0.392,0.459,1.28,0.292
					c-0.109-0.064-0.15-0.128-0.142-0.189c0.023-0.169,0.419-0.274,0.813-0.303c0.397-0.029,0.803,0.025,0.834,0.172
					c0.02,0.093-0.111,0.209-0.491,0.338l0.426,0.059c1.369,0.184,1.954-1.351,2.164-1.903c0.061-0.16,0.1-0.261,0.182-0.283
					c0.203-0.055,0.191,0.189,0.16,0.84l-0.039,0.842c-0.005,0.111-0.153,0.142-0.088,0.145c0.015,0,0.007-0.016,0.041-0.038
					c0.226-0.146,0.715-0.462,1.699-0.099c0.177,0.065,0.861,0.049,1.543,0.032c0.483-0.012,0.964-0.023,1.284-0.005
					c-0.018-0.071,0.024-0.143,0.095-0.162c0.071-0.019,0.144,0.024,0.163,0.095l0.1,0.379l-0.2-0.029
					c-0.271-0.04-0.853-0.026-1.436-0.012c-0.708,0.017-1.419,0.034-1.641-0.048c-0.86-0.318-1.273-0.051-1.463,0.072
					c-0.076,0.049-0.129,0.083-0.196,0.08c-0.15-0.007-0.181-0.114-0.168-0.421l0.04-0.866c-0.326,0.734-0.989,1.818-2.276,1.645
					c-0.398-0.053-0.704-0.111-0.936-0.17c-0.09,0.022-0.187,0.043-0.292,0.065c-1.179,0.248-1.623-0.023-1.718-0.474
					c-0.097-0.462,0.22-1.097,0.441-1.522c-1.605,1.324-2.25,1.23-2.399,0.482C133.333,115.055,133.693,113.787,134.071,112.636
					L134.071,112.636z M136.069,114.952c-0.02-0.023-0.016,0.006-0.023,0.052C136.07,114.982,136.082,114.968,136.069,114.952
					L136.069,114.952z M137.353,116.917c0.634-0.134,0.856-0.183,0.856-0.185l-0.554,0.04c-0.284,0.021-0.565,0.051-0.568,0.072
					C137.085,116.858,137.161,116.882,137.353,116.917L137.353,116.917z M140.819,115.147c-0.04,0.011,0.002,0.028,0.006,0.076
					C140.866,115.158,140.881,115.13,140.819,115.147z"/>
			</g>
			<polygon style="fill-rule:evenodd;clip-rule:evenodd;fill:#694D4D;" points="143.857,200.111 264.606,199.059 264.606,205.476 
				143.857,206.529 			"/>
			<polygon style="fill-rule:evenodd;clip-rule:evenodd;fill:#E6C6C6;" points="143.857,200.111 264.606,199.059 264.606,200.214 
				143.857,201.267 			"/>
			<polygon style="fill-rule:evenodd;clip-rule:evenodd;fill:#876868;" points="180.049,198.836 221.154,199.446 226.133,205.283 
				175.51,205.822 			"/>
			<polygon style="fill-rule:evenodd;clip-rule:evenodd;fill:#997777;" points="187.425,161.323 214.658,161.323 214.658,204.281 
				209.159,199.492 191.539,199.882 187.425,204.281 			"/>
			<polygon style="fill-rule:evenodd;clip-rule:evenodd;fill:#826565;" points="188.513,162.181 190.364,164.125 212.275,164.125 
				214.097,162.133 212.898,165.189 212.898,202.039 189.184,202.039 189.184,165.481 			"/>
		</g>
	</g>
</g>
<g id="Table">
	<path style="fill-rule:evenodd;clip-rule:evenodd;fill:#1B0E42;" d="M81.402,207.287h11.86l-1.008,133.405
		c-1.184,0.274-2.462,0.284-3.649,0.018L81.402,207.287z"/>
	<path style="fill-rule:evenodd;clip-rule:evenodd;fill:#1B0E42;" d="M321.647,208.085h-11.86l1.008,133.405
		c1.184,0.274,2.462,0.284,3.649,0.018L321.647,208.085z"/>
	<g>
		<g>
			<g>
				<path style="fill-rule:evenodd;clip-rule:evenodd;fill:#180C3D;" d="M56.542,213.429h11.86l-1.008,133.405
					c-1.184,0.274-2.461,0.284-3.649,0.018L56.542,213.429z"/>
				<polygon style="fill-rule:evenodd;clip-rule:evenodd;fill:#050017;" points="68.401,213.429 56.542,213.429 64.379,337.331 
					61.311,235.689 67.064,233.388 67.896,280.244 				"/>
				<path style="fill-rule:evenodd;clip-rule:evenodd;fill:#8E19C4;" d="M68.258,232.429c-1.56,1.14-2.339,1.711-2.339,1.711
					s0.508,39.078,1.475,112.695C67.393,346.834,67.665,307.186,68.258,232.429z"/>
				<polygon style="fill-rule:evenodd;clip-rule:evenodd;fill:#050017;" points="68.401,213.429 56.542,213.429 64.379,337.331 
					61.311,235.689 67.064,233.388 67.896,280.244 				"/>
				<path style="fill-rule:evenodd;clip-rule:evenodd;fill:#5A1978;" d="M91.647,231.401c-1.56,1.078-2.34,1.617-2.34,1.617
					s0.508,36.948,1.475,106.553C90.782,339.572,91.054,302.084,91.647,231.401z"/>
			</g>
			<g>
				<path style="fill-rule:evenodd;clip-rule:evenodd;fill:#180C3D;" d="M346.507,214.227h-11.86l1.008,133.405
					c1.184,0.274,2.461,0.284,3.649,0.018L346.507,214.227z"/>
				<path style="fill-rule:evenodd;clip-rule:evenodd;fill:#8E19C4;" d="M334.791,233.227c1.56,1.14,2.34,1.71,2.34,1.71
					s-0.508,39.078-1.475,112.695C335.656,347.633,335.384,307.984,334.791,233.227z"/>
				<polygon style="fill-rule:evenodd;clip-rule:evenodd;fill:#050017;" points="334.648,214.227 346.507,214.227 338.67,338.129 
					341.739,236.487 335.985,234.186 335.153,281.042 				"/>
				<path style="fill-rule:evenodd;clip-rule:evenodd;fill:#5A1978;" d="M311.402,232.199c1.56,1.078,2.34,1.617,2.34,1.617
					s-0.508,36.948-1.475,106.553C312.267,340.37,311.995,302.882,311.402,232.199z"/>
			</g>
		</g>
		<g>
			<polygon style="fill-rule:evenodd;clip-rule:evenodd;fill:#DB8B30;" points="36.965,208.094 366.808,203.16 365.25,219.522 
				36.965,219.522 			"/>
			<polygon style="fill-rule:evenodd;clip-rule:evenodd;fill:#D67200;" points="41.556,214.212 39.446,210.952 39.446,219.522 
				231.607,216.513 362.208,216.896 363.934,207.308 358.756,209.801 360.29,205.965 			"/>
		</g>
	</g>
</g>
</svg>
