<svg id="visual" viewBox="0 0 900 900" width="900" height="900" xmlns="http://www.w3.org/2000/svg" xmlns:xlink="http://www.w3.org/1999/xlink" version="1.1"><path d="M0 361L82 361L82 334L164 334L164 226L245 226L245 181L327 181L327 109L409 109L409 361L491 361L491 271L573 271L573 352L655 352L655 289L736 289L736 136L818 136L818 298L900 298L900 334L900 0L900 0L818 0L818 0L736 0L736 0L655 0L655 0L573 0L573 0L491 0L491 0L409 0L409 0L327 0L327 0L245 0L245 0L164 0L164 0L82 0L82 0L0 0Z" fill="#23003f"></path><path d="M0 532L82 532L82 532L164 532L164 325L245 325L245 334L327 334L327 235L409 235L409 496L491 496L491 433L573 433L573 505L655 505L655 451L736 451L736 307L818 307L818 406L900 406L900 496L900 332L900 296L818 296L818 134L736 134L736 287L655 287L655 350L573 350L573 269L491 269L491 359L409 359L409 107L327 107L327 179L245 179L245 224L164 224L164 332L82 332L82 359L0 359Z" fill="#47014c"></path><path d="M0 667L82 667L82 676L164 676L164 505L245 505L245 532L327 532L327 451L409 451L409 577L491 577L491 622L573 622L573 595L655 595L655 640L736 640L736 460L818 460L818 640L900 640L900 622L900 494L900 404L818 404L818 305L736 305L736 449L655 449L655 503L573 503L573 431L491 431L491 494L409 494L409 233L327 233L327 332L245 332L245 323L164 323L164 530L82 530L82 530L0 530Z" fill="#6b0456"></path><path d="M0 757L82 757L82 730L164 730L164 586L245 586L245 649L327 649L327 604L409 604L409 676L491 676L491 739L573 739L573 667L655 667L655 730L736 730L736 532L818 532L818 775L900 775L900 676L900 620L900 638L818 638L818 458L736 458L736 638L655 638L655 593L573 593L573 620L491 620L491 575L409 575L409 449L327 449L327 530L245 530L245 503L164 503L164 674L82 674L82 665L0 665Z" fill="#8e115c"></path><path d="M0 901L82 901L82 901L164 901L164 901L245 901L245 901L327 901L327 901L409 901L409 901L491 901L491 901L573 901L573 901L655 901L655 901L736 901L736 901L818 901L818 901L900 901L900 901L900 674L900 773L818 773L818 530L736 530L736 728L655 728L655 665L573 665L573 737L491 737L491 674L409 674L409 602L327 602L327 647L245 647L245 584L164 584L164 728L82 728L82 755L0 755Z" fill="#b0235f"></path></svg>